<mxfile host="Electron" modified="2023-04-13T17:02:03.349Z" agent="Mozilla/5.0 (Windows NT 10.0; Win64; x64) AppleWebKit/537.36 (KHTML, like Gecko) draw.io/21.1.2 Chrome/106.0.5249.199 Electron/21.4.3 Safari/537.36" etag="5DCIcrqo-x4vRtOZ6HLq" version="21.1.2" type="device">
  <diagram name="Page-1" id="5d7acffa-a066-3a61-03fe-96351882024d">
    <mxGraphModel dx="1290" dy="669" grid="1" gridSize="10" guides="1" tooltips="1" connect="1" arrows="1" fold="1" page="1" pageScale="1" pageWidth="1100" pageHeight="850" background="#ffffff" math="0" shadow="0">
      <root>
        <mxCell id="0" />
        <mxCell id="1" parent="0" />
        <mxCell id="S22k_SI6KiM7VIfaPMrJ-14" value="trends" style="swimlane;html=1;fontStyle=0;childLayout=stackLayout;horizontal=1;startSize=26;fillColor=#e0e0e0;horizontalStack=0;resizeParent=1;resizeLast=0;collapsible=1;marginBottom=0;swimlaneFillColor=#ffffff;align=center;rounded=1;shadow=0;comic=0;labelBackgroundColor=none;strokeWidth=1;fontFamily=Verdana;fontSize=12" parent="1" vertex="1">
          <mxGeometry x="550" y="444" width="160" height="56" as="geometry" />
        </mxCell>
        <mxCell id="S22k_SI6KiM7VIfaPMrJ-15" value="id" style="text;html=1;strokeColor=none;fillColor=none;spacingLeft=4;spacingRight=4;whiteSpace=wrap;overflow=hidden;rotatable=0;points=[[0,0.5],[1,0.5]];portConstraint=eastwest;" parent="S22k_SI6KiM7VIfaPMrJ-14" vertex="1">
          <mxGeometry y="26" width="160" height="24" as="geometry" />
        </mxCell>
        <mxCell id="S22k_SI6KiM7VIfaPMrJ-17" style="edgeStyle=none;curved=1;rounded=0;orthogonalLoop=1;jettySize=auto;html=1;entryX=0;entryY=0.5;entryDx=0;entryDy=0;fontSize=12;startSize=8;endSize=8;" parent="S22k_SI6KiM7VIfaPMrJ-14" source="S22k_SI6KiM7VIfaPMrJ-15" target="S22k_SI6KiM7VIfaPMrJ-15" edge="1">
          <mxGeometry relative="1" as="geometry" />
        </mxCell>
        <mxCell id="S22k_SI6KiM7VIfaPMrJ-44" value="artist" style="swimlane;html=1;fontStyle=0;childLayout=stackLayout;horizontal=1;startSize=26;fillColor=#e0e0e0;horizontalStack=0;resizeParent=1;resizeLast=0;collapsible=1;marginBottom=0;swimlaneFillColor=#ffffff;align=center;rounded=1;shadow=0;comic=0;labelBackgroundColor=none;strokeWidth=1;fontFamily=Verdana;fontSize=12" parent="1" vertex="1">
          <mxGeometry x="295" y="425" width="160" height="155" as="geometry" />
        </mxCell>
        <mxCell id="S22k_SI6KiM7VIfaPMrJ-53" value="artist_id pk" style="text;html=1;strokeColor=none;fillColor=none;spacingLeft=4;spacingRight=4;whiteSpace=wrap;overflow=hidden;rotatable=0;points=[[0,0.5],[1,0.5]];portConstraint=eastwest;" parent="S22k_SI6KiM7VIfaPMrJ-44" vertex="1">
          <mxGeometry y="26" width="160" height="24" as="geometry" />
        </mxCell>
        <mxCell id="S22k_SI6KiM7VIfaPMrJ-45" value="first_name" style="text;html=1;strokeColor=none;fillColor=none;spacingLeft=4;spacingRight=4;whiteSpace=wrap;overflow=hidden;rotatable=0;points=[[0,0.5],[1,0.5]];portConstraint=eastwest;" parent="S22k_SI6KiM7VIfaPMrJ-44" vertex="1">
          <mxGeometry y="50" width="160" height="26" as="geometry" />
        </mxCell>
        <mxCell id="yDKHlE_T7qM1zm8OEz1K-3" value="last_name" style="text;html=1;strokeColor=none;fillColor=none;spacingLeft=4;spacingRight=4;whiteSpace=wrap;overflow=hidden;rotatable=0;points=[[0,0.5],[1,0.5]];portConstraint=eastwest;" parent="S22k_SI6KiM7VIfaPMrJ-44" vertex="1">
          <mxGeometry y="76" width="160" height="26" as="geometry" />
        </mxCell>
        <mxCell id="Y6p9sgC2ir5CLleIbesz-3" value="birth_year" style="text;html=1;strokeColor=none;fillColor=none;spacingLeft=4;spacingRight=4;whiteSpace=wrap;overflow=hidden;rotatable=0;points=[[0,0.5],[1,0.5]];portConstraint=eastwest;" vertex="1" parent="S22k_SI6KiM7VIfaPMrJ-44">
          <mxGeometry y="102" width="160" height="26" as="geometry" />
        </mxCell>
        <mxCell id="Y6p9sgC2ir5CLleIbesz-4" value="death_year" style="text;html=1;strokeColor=none;fillColor=none;spacingLeft=4;spacingRight=4;whiteSpace=wrap;overflow=hidden;rotatable=0;points=[[0,0.5],[1,0.5]];portConstraint=eastwest;" vertex="1" parent="S22k_SI6KiM7VIfaPMrJ-44">
          <mxGeometry y="128" width="160" height="26" as="geometry" />
        </mxCell>
        <mxCell id="Y6p9sgC2ir5CLleIbesz-60" value="artist" style="rounded=0;whiteSpace=wrap;html=1;" vertex="1" parent="1">
          <mxGeometry x="170" y="125" width="80" height="40" as="geometry" />
        </mxCell>
        <mxCell id="Y6p9sgC2ir5CLleIbesz-61" value="artwork" style="rounded=0;whiteSpace=wrap;html=1;" vertex="1" parent="1">
          <mxGeometry x="610" y="120" width="80" height="40" as="geometry" />
        </mxCell>
        <mxCell id="Y6p9sgC2ir5CLleIbesz-62" value="exhibition" style="rounded=0;whiteSpace=wrap;html=1;" vertex="1" parent="1">
          <mxGeometry x="843" y="125" width="100" height="40" as="geometry" />
        </mxCell>
        <mxCell id="Y6p9sgC2ir5CLleIbesz-63" value="first_name" style="ellipse;whiteSpace=wrap;html=1;" vertex="1" parent="1">
          <mxGeometry x="190" y="40" width="70" height="30" as="geometry" />
        </mxCell>
        <mxCell id="Y6p9sgC2ir5CLleIbesz-64" value="last_name" style="ellipse;whiteSpace=wrap;html=1;" vertex="1" parent="1">
          <mxGeometry x="270" y="40" width="70" height="30" as="geometry" />
        </mxCell>
        <mxCell id="Y6p9sgC2ir5CLleIbesz-65" value="&lt;u&gt;artist_id&lt;/u&gt;" style="ellipse;whiteSpace=wrap;html=1;" vertex="1" parent="1">
          <mxGeometry x="120" y="40" width="50" height="30" as="geometry" />
        </mxCell>
        <mxCell id="Y6p9sgC2ir5CLleIbesz-66" value="" style="endArrow=none;html=1;rounded=0;entryX=0.5;entryY=0;entryDx=0;entryDy=0;exitX=0.5;exitY=1;exitDx=0;exitDy=0;" edge="1" parent="1" source="Y6p9sgC2ir5CLleIbesz-63" target="Y6p9sgC2ir5CLleIbesz-60">
          <mxGeometry width="50" height="50" relative="1" as="geometry">
            <mxPoint x="450" y="60" as="sourcePoint" />
            <mxPoint x="670" y="300" as="targetPoint" />
          </mxGeometry>
        </mxCell>
        <mxCell id="Y6p9sgC2ir5CLleIbesz-67" value="" style="endArrow=none;html=1;rounded=0;exitX=0;exitY=1;exitDx=0;exitDy=0;entryX=0.75;entryY=0;entryDx=0;entryDy=0;" edge="1" parent="1" source="Y6p9sgC2ir5CLleIbesz-64" target="Y6p9sgC2ir5CLleIbesz-60">
          <mxGeometry width="50" height="50" relative="1" as="geometry">
            <mxPoint x="450" y="40" as="sourcePoint" />
            <mxPoint x="430" y="60" as="targetPoint" />
          </mxGeometry>
        </mxCell>
        <mxCell id="Y6p9sgC2ir5CLleIbesz-68" value="" style="endArrow=none;html=1;rounded=0;exitX=0;exitY=0;exitDx=0;exitDy=0;entryX=0.5;entryY=1;entryDx=0;entryDy=0;" edge="1" parent="1" source="Y6p9sgC2ir5CLleIbesz-60" target="Y6p9sgC2ir5CLleIbesz-65">
          <mxGeometry width="50" height="50" relative="1" as="geometry">
            <mxPoint x="420" y="120" as="sourcePoint" />
            <mxPoint x="430" y="70" as="targetPoint" />
          </mxGeometry>
        </mxCell>
        <mxCell id="Y6p9sgC2ir5CLleIbesz-69" value="technique" style="ellipse;whiteSpace=wrap;html=1;" vertex="1" parent="1">
          <mxGeometry x="650" y="40" width="69" height="30" as="geometry" />
        </mxCell>
        <mxCell id="Y6p9sgC2ir5CLleIbesz-70" value="" style="endArrow=none;html=1;rounded=0;exitX=0.5;exitY=0;exitDx=0;exitDy=0;entryX=0.5;entryY=1;entryDx=0;entryDy=0;" edge="1" parent="1" source="Y6p9sgC2ir5CLleIbesz-61" target="Y6p9sgC2ir5CLleIbesz-69">
          <mxGeometry width="50" height="50" relative="1" as="geometry">
            <mxPoint x="679" y="125" as="sourcePoint" />
            <mxPoint x="689" y="75" as="targetPoint" />
          </mxGeometry>
        </mxCell>
        <mxCell id="Y6p9sgC2ir5CLleIbesz-71" value="&lt;u&gt;exhibition_id&lt;/u&gt;" style="ellipse;whiteSpace=wrap;html=1;" vertex="1" parent="1">
          <mxGeometry x="790" y="30" width="90" height="30" as="geometry" />
        </mxCell>
        <mxCell id="Y6p9sgC2ir5CLleIbesz-72" value="exhibition_name" style="ellipse;whiteSpace=wrap;html=1;" vertex="1" parent="1">
          <mxGeometry x="893" y="30" width="107" height="30" as="geometry" />
        </mxCell>
        <mxCell id="Y6p9sgC2ir5CLleIbesz-73" value="" style="endArrow=none;html=1;rounded=0;entryX=0.5;entryY=0;entryDx=0;entryDy=0;exitX=0;exitY=1;exitDx=0;exitDy=0;" edge="1" parent="1" source="Y6p9sgC2ir5CLleIbesz-72" target="Y6p9sgC2ir5CLleIbesz-62">
          <mxGeometry width="50" height="50" relative="1" as="geometry">
            <mxPoint x="900" y="50" as="sourcePoint" />
            <mxPoint x="889" y="165" as="targetPoint" />
          </mxGeometry>
        </mxCell>
        <mxCell id="Y6p9sgC2ir5CLleIbesz-74" value="" style="endArrow=none;html=1;rounded=0;exitX=0.5;exitY=1;exitDx=0;exitDy=0;entryX=0.25;entryY=0;entryDx=0;entryDy=0;" edge="1" parent="1" source="Y6p9sgC2ir5CLleIbesz-71" target="Y6p9sgC2ir5CLleIbesz-62">
          <mxGeometry width="50" height="50" relative="1" as="geometry">
            <mxPoint x="859" y="215" as="sourcePoint" />
            <mxPoint x="869" y="165" as="targetPoint" />
          </mxGeometry>
        </mxCell>
        <mxCell id="Y6p9sgC2ir5CLleIbesz-75" value="artwork_name" style="ellipse;whiteSpace=wrap;html=1;" vertex="1" parent="1">
          <mxGeometry x="556" y="40" width="89" height="30" as="geometry" />
        </mxCell>
        <mxCell id="Y6p9sgC2ir5CLleIbesz-76" value="value" style="ellipse;whiteSpace=wrap;html=1;" vertex="1" parent="1">
          <mxGeometry x="730" y="30" width="50" height="30" as="geometry" />
        </mxCell>
        <mxCell id="Y6p9sgC2ir5CLleIbesz-77" value="" style="endArrow=none;html=1;rounded=0;exitX=0;exitY=1;exitDx=0;exitDy=0;entryX=0.75;entryY=0;entryDx=0;entryDy=0;" edge="1" parent="1" source="Y6p9sgC2ir5CLleIbesz-76" target="Y6p9sgC2ir5CLleIbesz-61">
          <mxGeometry width="50" height="50" relative="1" as="geometry">
            <mxPoint x="669" y="225" as="sourcePoint" />
            <mxPoint x="689" y="165" as="targetPoint" />
          </mxGeometry>
        </mxCell>
        <mxCell id="Y6p9sgC2ir5CLleIbesz-78" value="" style="endArrow=none;html=1;rounded=0;exitX=1;exitY=1;exitDx=0;exitDy=0;entryX=0.25;entryY=0;entryDx=0;entryDy=0;" edge="1" parent="1" source="Y6p9sgC2ir5CLleIbesz-75" target="Y6p9sgC2ir5CLleIbesz-61">
          <mxGeometry width="50" height="50" relative="1" as="geometry">
            <mxPoint x="659" y="215" as="sourcePoint" />
            <mxPoint x="669" y="165" as="targetPoint" />
          </mxGeometry>
        </mxCell>
        <mxCell id="Y6p9sgC2ir5CLleIbesz-79" value="year" style="ellipse;whiteSpace=wrap;html=1;" vertex="1" parent="1">
          <mxGeometry x="1010" y="40" width="50" height="30" as="geometry" />
        </mxCell>
        <mxCell id="Y6p9sgC2ir5CLleIbesz-80" value="" style="endArrow=none;html=1;rounded=0;entryX=1;entryY=0;entryDx=0;entryDy=0;exitX=0;exitY=1;exitDx=0;exitDy=0;" edge="1" parent="1" source="Y6p9sgC2ir5CLleIbesz-79" target="Y6p9sgC2ir5CLleIbesz-62">
          <mxGeometry width="50" height="50" relative="1" as="geometry">
            <mxPoint x="1049" y="75" as="sourcePoint" />
            <mxPoint x="1010" y="150" as="targetPoint" />
          </mxGeometry>
        </mxCell>
        <mxCell id="Y6p9sgC2ir5CLleIbesz-81" value="" style="endArrow=none;html=1;rounded=0;exitX=1;exitY=0.5;exitDx=0;exitDy=0;entryX=0;entryY=0.5;entryDx=0;entryDy=0;shape=link;" edge="1" parent="1" source="Y6p9sgC2ir5CLleIbesz-61" target="Y6p9sgC2ir5CLleIbesz-82">
          <mxGeometry width="50" height="50" relative="1" as="geometry">
            <mxPoint x="470.00233047033635" y="139.99660171779806" as="sourcePoint" />
            <mxPoint x="580" y="230" as="targetPoint" />
          </mxGeometry>
        </mxCell>
        <mxCell id="Y6p9sgC2ir5CLleIbesz-82" value="displayed_at" style="rhombus;whiteSpace=wrap;html=1;" vertex="1" parent="1">
          <mxGeometry x="710" y="220" width="120" height="50" as="geometry" />
        </mxCell>
        <mxCell id="Y6p9sgC2ir5CLleIbesz-83" value="" style="endArrow=none;html=1;rounded=0;exitX=1;exitY=0.5;exitDx=0;exitDy=0;entryX=0;entryY=0.5;entryDx=0;entryDy=0;shape=link;" edge="1" parent="1" source="Y6p9sgC2ir5CLleIbesz-82" target="Y6p9sgC2ir5CLleIbesz-62">
          <mxGeometry width="50" height="50" relative="1" as="geometry">
            <mxPoint x="610.0023304703363" y="179.99660171779806" as="sourcePoint" />
            <mxPoint x="650.0009547835937" y="219.99904521640633" as="targetPoint" />
          </mxGeometry>
        </mxCell>
        <mxCell id="Y6p9sgC2ir5CLleIbesz-84" value="M" style="text;html=1;strokeColor=none;fillColor=none;align=center;verticalAlign=middle;whiteSpace=wrap;rounded=0;" vertex="1" parent="1">
          <mxGeometry x="710" y="210" width="20" height="30" as="geometry" />
        </mxCell>
        <mxCell id="Y6p9sgC2ir5CLleIbesz-85" value="N" style="text;html=1;strokeColor=none;fillColor=none;align=center;verticalAlign=middle;whiteSpace=wrap;rounded=0;" vertex="1" parent="1">
          <mxGeometry x="810" y="210" width="20" height="30" as="geometry" />
        </mxCell>
        <mxCell id="Y6p9sgC2ir5CLleIbesz-86" value="&lt;u&gt;artwork_id&lt;/u&gt;" style="ellipse;whiteSpace=wrap;html=1;" vertex="1" parent="1">
          <mxGeometry x="470" y="40" width="80" height="30" as="geometry" />
        </mxCell>
        <mxCell id="Y6p9sgC2ir5CLleIbesz-87" value="" style="endArrow=none;html=1;rounded=0;exitX=0.5;exitY=1;exitDx=0;exitDy=0;entryX=0;entryY=0;entryDx=0;entryDy=0;" edge="1" parent="1" source="Y6p9sgC2ir5CLleIbesz-86" target="Y6p9sgC2ir5CLleIbesz-61">
          <mxGeometry width="50" height="50" relative="1" as="geometry">
            <mxPoint x="899" y="365" as="sourcePoint" />
            <mxPoint x="635" y="130" as="targetPoint" />
          </mxGeometry>
        </mxCell>
        <mxCell id="Y6p9sgC2ir5CLleIbesz-88" value="birth_year" style="ellipse;whiteSpace=wrap;html=1;" vertex="1" parent="1">
          <mxGeometry x="360" y="40" width="70" height="30" as="geometry" />
        </mxCell>
        <mxCell id="Y6p9sgC2ir5CLleIbesz-89" value="" style="endArrow=none;html=1;rounded=0;exitX=0;exitY=1;exitDx=0;exitDy=0;entryX=0.75;entryY=0;entryDx=0;entryDy=0;" edge="1" parent="1" source="Y6p9sgC2ir5CLleIbesz-88" target="Y6p9sgC2ir5CLleIbesz-60">
          <mxGeometry width="50" height="50" relative="1" as="geometry">
            <mxPoint x="530" y="30" as="sourcePoint" />
            <mxPoint x="530" y="110" as="targetPoint" />
          </mxGeometry>
        </mxCell>
        <mxCell id="Y6p9sgC2ir5CLleIbesz-90" value="death_year" style="ellipse;whiteSpace=wrap;html=1;" vertex="1" parent="1">
          <mxGeometry x="380" y="80" width="70" height="30" as="geometry" />
        </mxCell>
        <mxCell id="Y6p9sgC2ir5CLleIbesz-91" value="" style="endArrow=none;html=1;rounded=0;exitX=0;exitY=1;exitDx=0;exitDy=0;entryX=1;entryY=0;entryDx=0;entryDy=0;" edge="1" parent="1" source="Y6p9sgC2ir5CLleIbesz-90" target="Y6p9sgC2ir5CLleIbesz-60">
          <mxGeometry width="50" height="50" relative="1" as="geometry">
            <mxPoint x="550" y="70" as="sourcePoint" />
            <mxPoint x="220" y="190" as="targetPoint" />
          </mxGeometry>
        </mxCell>
        <mxCell id="Y6p9sgC2ir5CLleIbesz-92" value="year_created" style="ellipse;whiteSpace=wrap;html=1;" vertex="1" parent="1">
          <mxGeometry x="723" y="70" width="90" height="30" as="geometry" />
        </mxCell>
        <mxCell id="Y6p9sgC2ir5CLleIbesz-93" value="" style="endArrow=none;html=1;rounded=0;exitX=0;exitY=1;exitDx=0;exitDy=0;entryX=1;entryY=0;entryDx=0;entryDy=0;" edge="1" parent="1" source="Y6p9sgC2ir5CLleIbesz-92" target="Y6p9sgC2ir5CLleIbesz-61">
          <mxGeometry width="50" height="50" relative="1" as="geometry">
            <mxPoint x="699" y="270" as="sourcePoint" />
            <mxPoint x="700" y="165" as="targetPoint" />
          </mxGeometry>
        </mxCell>
        <mxCell id="Y6p9sgC2ir5CLleIbesz-94" value="visitor_count" style="ellipse;whiteSpace=wrap;html=1;" vertex="1" parent="1">
          <mxGeometry x="1030" y="70" width="93" height="30" as="geometry" />
        </mxCell>
        <mxCell id="Y6p9sgC2ir5CLleIbesz-95" value="" style="endArrow=none;html=1;rounded=0;entryX=1;entryY=0.25;entryDx=0;entryDy=0;exitX=0;exitY=1;exitDx=0;exitDy=0;" edge="1" parent="1" source="Y6p9sgC2ir5CLleIbesz-94" target="Y6p9sgC2ir5CLleIbesz-62">
          <mxGeometry width="50" height="50" relative="1" as="geometry">
            <mxPoint x="1106" y="110" as="sourcePoint" />
            <mxPoint x="1000" y="160" as="targetPoint" />
          </mxGeometry>
        </mxCell>
        <mxCell id="Y6p9sgC2ir5CLleIbesz-96" value="location" style="ellipse;whiteSpace=wrap;html=1;" vertex="1" parent="1">
          <mxGeometry x="1030" y="110" width="93" height="30" as="geometry" />
        </mxCell>
        <mxCell id="Y6p9sgC2ir5CLleIbesz-97" value="" style="endArrow=none;html=1;rounded=0;entryX=1;entryY=0.25;entryDx=0;entryDy=0;exitX=0;exitY=1;exitDx=0;exitDy=0;" edge="1" parent="1" source="Y6p9sgC2ir5CLleIbesz-96" target="Y6p9sgC2ir5CLleIbesz-62">
          <mxGeometry width="50" height="50" relative="1" as="geometry">
            <mxPoint x="1116" y="170" as="sourcePoint" />
            <mxPoint x="953" y="195" as="targetPoint" />
          </mxGeometry>
        </mxCell>
        <mxCell id="Y6p9sgC2ir5CLleIbesz-98" value="" style="endArrow=none;html=1;rounded=0;exitX=1;exitY=1;exitDx=0;exitDy=0;entryX=0;entryY=0.5;entryDx=0;entryDy=0;shape=link;" edge="1" parent="1" source="Y6p9sgC2ir5CLleIbesz-60" target="Y6p9sgC2ir5CLleIbesz-99">
          <mxGeometry width="50" height="50" relative="1" as="geometry">
            <mxPoint x="250" y="205" as="sourcePoint" />
            <mxPoint x="270" y="300" as="targetPoint" />
          </mxGeometry>
        </mxCell>
        <mxCell id="Y6p9sgC2ir5CLleIbesz-99" value="also related with" style="rhombus;whiteSpace=wrap;html=1;" vertex="1" parent="1">
          <mxGeometry x="400" y="260" width="120" height="50" as="geometry" />
        </mxCell>
        <mxCell id="Y6p9sgC2ir5CLleIbesz-100" value="1" style="text;html=1;strokeColor=none;fillColor=none;align=center;verticalAlign=middle;whiteSpace=wrap;rounded=0;" vertex="1" parent="1">
          <mxGeometry x="500" y="250" width="20" height="30" as="geometry" />
        </mxCell>
        <mxCell id="Y6p9sgC2ir5CLleIbesz-101" value="N" style="text;html=1;strokeColor=none;fillColor=none;align=center;verticalAlign=middle;whiteSpace=wrap;rounded=0;" vertex="1" parent="1">
          <mxGeometry x="390" y="240" width="20" height="30" as="geometry" />
        </mxCell>
        <mxCell id="Y6p9sgC2ir5CLleIbesz-102" value="" style="endArrow=none;html=1;rounded=0;exitX=1;exitY=0.5;exitDx=0;exitDy=0;entryX=0;entryY=1;entryDx=0;entryDy=0;" edge="1" parent="1" source="Y6p9sgC2ir5CLleIbesz-99" target="Y6p9sgC2ir5CLleIbesz-61">
          <mxGeometry width="50" height="50" relative="1" as="geometry">
            <mxPoint x="525.5" y="260" as="sourcePoint" />
            <mxPoint x="675.5" y="305" as="targetPoint" />
          </mxGeometry>
        </mxCell>
        <mxCell id="Y6p9sgC2ir5CLleIbesz-103" value="" style="endArrow=none;html=1;rounded=0;entryX=1;entryY=0.5;entryDx=0;entryDy=0;shape=link;exitX=0;exitY=0.5;exitDx=0;exitDy=0;" edge="1" parent="1" source="Y6p9sgC2ir5CLleIbesz-108" target="Y6p9sgC2ir5CLleIbesz-104">
          <mxGeometry width="50" height="50" relative="1" as="geometry">
            <mxPoint x="690" y="330" as="sourcePoint" />
            <mxPoint x="230" y="410" as="targetPoint" />
          </mxGeometry>
        </mxCell>
        <mxCell id="Y6p9sgC2ir5CLleIbesz-104" value="associate" style="rhombus;whiteSpace=wrap;html=1;" vertex="1" parent="1">
          <mxGeometry x="310" y="295" width="130" height="50" as="geometry" />
        </mxCell>
        <mxCell id="Y6p9sgC2ir5CLleIbesz-105" value="" style="endArrow=none;html=1;rounded=0;entryX=0.5;entryY=1;entryDx=0;entryDy=0;exitX=0;exitY=0.5;exitDx=0;exitDy=0;" edge="1" parent="1" source="Y6p9sgC2ir5CLleIbesz-104" target="Y6p9sgC2ir5CLleIbesz-60">
          <mxGeometry width="50" height="50" relative="1" as="geometry">
            <mxPoint x="340" y="320" as="sourcePoint" />
            <mxPoint x="570" y="270" as="targetPoint" />
          </mxGeometry>
        </mxCell>
        <mxCell id="Y6p9sgC2ir5CLleIbesz-106" value="Impressionism" style="ellipse;shape=doubleEllipse;margin=3;whiteSpace=wrap;html=1;align=center;" vertex="1" parent="1">
          <mxGeometry x="723" y="325" width="100" height="40" as="geometry" />
        </mxCell>
        <mxCell id="Y6p9sgC2ir5CLleIbesz-107" value="Expressionism" style="ellipse;shape=doubleEllipse;margin=3;whiteSpace=wrap;html=1;align=center;" vertex="1" parent="1">
          <mxGeometry x="640" y="365" width="100" height="40" as="geometry" />
        </mxCell>
        <mxCell id="Y6p9sgC2ir5CLleIbesz-108" value="trends" style="rounded=0;whiteSpace=wrap;html=1;" vertex="1" parent="1">
          <mxGeometry x="540" y="310" width="80" height="40" as="geometry" />
        </mxCell>
        <mxCell id="Y6p9sgC2ir5CLleIbesz-109" value="" style="endArrow=none;html=1;rounded=0;exitX=0;exitY=0.5;exitDx=0;exitDy=0;entryX=0.5;entryY=1;entryDx=0;entryDy=0;" edge="1" parent="1" source="Y6p9sgC2ir5CLleIbesz-107" target="Y6p9sgC2ir5CLleIbesz-108">
          <mxGeometry width="50" height="50" relative="1" as="geometry">
            <mxPoint x="645" y="475" as="sourcePoint" />
            <mxPoint x="735" y="350" as="targetPoint" />
          </mxGeometry>
        </mxCell>
        <mxCell id="Y6p9sgC2ir5CLleIbesz-110" value="" style="endArrow=none;html=1;rounded=0;exitX=0;exitY=0.5;exitDx=0;exitDy=0;entryX=1;entryY=0.75;entryDx=0;entryDy=0;" edge="1" parent="1" source="Y6p9sgC2ir5CLleIbesz-106" target="Y6p9sgC2ir5CLleIbesz-108">
          <mxGeometry width="50" height="50" relative="1" as="geometry">
            <mxPoint x="691.0000000000002" y="415" as="sourcePoint" />
            <mxPoint x="770" y="350" as="targetPoint" />
          </mxGeometry>
        </mxCell>
        <mxCell id="Y6p9sgC2ir5CLleIbesz-111" value="id" style="ellipse;whiteSpace=wrap;html=1;" vertex="1" parent="1">
          <mxGeometry x="645.5" y="295" width="89" height="30" as="geometry" />
        </mxCell>
        <mxCell id="Y6p9sgC2ir5CLleIbesz-112" value="" style="endArrow=none;html=1;rounded=0;exitX=0;exitY=0.5;exitDx=0;exitDy=0;entryX=1;entryY=0.5;entryDx=0;entryDy=0;" edge="1" parent="1" source="Y6p9sgC2ir5CLleIbesz-111" target="Y6p9sgC2ir5CLleIbesz-108">
          <mxGeometry width="50" height="50" relative="1" as="geometry">
            <mxPoint x="986" y="510" as="sourcePoint" />
            <mxPoint x="770" y="405" as="targetPoint" />
          </mxGeometry>
        </mxCell>
        <mxCell id="Y6p9sgC2ir5CLleIbesz-113" value="1" style="text;html=1;strokeColor=none;fillColor=none;align=center;verticalAlign=middle;whiteSpace=wrap;rounded=0;" vertex="1" parent="1">
          <mxGeometry x="280" y="305" width="20" height="30" as="geometry" />
        </mxCell>
        <mxCell id="Y6p9sgC2ir5CLleIbesz-114" value="N" style="text;html=1;strokeColor=none;fillColor=none;align=center;verticalAlign=middle;whiteSpace=wrap;rounded=0;" vertex="1" parent="1">
          <mxGeometry x="440" y="320" width="20" height="30" as="geometry" />
        </mxCell>
        <mxCell id="Y6p9sgC2ir5CLleIbesz-118" value="trends_impressionism" style="swimlane;html=1;fontStyle=0;childLayout=stackLayout;horizontal=1;startSize=26;fillColor=#e0e0e0;horizontalStack=0;resizeParent=1;resizeLast=0;collapsible=1;marginBottom=0;swimlaneFillColor=#ffffff;align=center;rounded=1;shadow=0;comic=0;labelBackgroundColor=none;strokeWidth=1;fontFamily=Verdana;fontSize=12" vertex="1" parent="1">
          <mxGeometry x="790" y="417" width="160" height="110" as="geometry" />
        </mxCell>
        <mxCell id="Y6p9sgC2ir5CLleIbesz-120" value="Impressionism pk" style="text;html=1;strokeColor=none;fillColor=none;spacingLeft=4;spacingRight=4;whiteSpace=wrap;overflow=hidden;rotatable=0;points=[[0,0.5],[1,0.5]];portConstraint=eastwest;" vertex="1" parent="Y6p9sgC2ir5CLleIbesz-118">
          <mxGeometry y="26" width="160" height="24" as="geometry" />
        </mxCell>
        <mxCell id="Y6p9sgC2ir5CLleIbesz-119" value="id pk fk" style="text;html=1;strokeColor=none;fillColor=none;spacingLeft=4;spacingRight=4;whiteSpace=wrap;overflow=hidden;rotatable=0;points=[[0,0.5],[1,0.5]];portConstraint=eastwest;" vertex="1" parent="Y6p9sgC2ir5CLleIbesz-118">
          <mxGeometry y="50" width="160" height="20" as="geometry" />
        </mxCell>
        <mxCell id="Y6p9sgC2ir5CLleIbesz-122" style="edgeStyle=none;curved=1;rounded=0;orthogonalLoop=1;jettySize=auto;html=1;entryX=0;entryY=0.5;entryDx=0;entryDy=0;fontSize=12;startSize=8;endSize=8;" edge="1" parent="Y6p9sgC2ir5CLleIbesz-118" source="Y6p9sgC2ir5CLleIbesz-119" target="Y6p9sgC2ir5CLleIbesz-119">
          <mxGeometry relative="1" as="geometry" />
        </mxCell>
        <mxCell id="Y6p9sgC2ir5CLleIbesz-123" style="edgeStyle=orthogonalEdgeStyle;rounded=0;orthogonalLoop=1;jettySize=auto;html=1;exitX=0;exitY=0.5;exitDx=0;exitDy=0;entryX=1;entryY=0.5;entryDx=0;entryDy=0;" edge="1" parent="1" source="Y6p9sgC2ir5CLleIbesz-119" target="S22k_SI6KiM7VIfaPMrJ-15">
          <mxGeometry relative="1" as="geometry">
            <Array as="points">
              <mxPoint x="790" y="482" />
            </Array>
          </mxGeometry>
        </mxCell>
        <mxCell id="Y6p9sgC2ir5CLleIbesz-125" style="edgeStyle=orthogonalEdgeStyle;rounded=0;orthogonalLoop=1;jettySize=auto;html=1;exitX=0;exitY=0.5;exitDx=0;exitDy=0;entryX=1;entryY=0.5;entryDx=0;entryDy=0;" edge="1" parent="1" source="S22k_SI6KiM7VIfaPMrJ-15" target="S22k_SI6KiM7VIfaPMrJ-53">
          <mxGeometry relative="1" as="geometry">
            <mxPoint x="530" y="507" as="sourcePoint" />
          </mxGeometry>
        </mxCell>
        <mxCell id="Y6p9sgC2ir5CLleIbesz-126" value="trends_expressionism" style="swimlane;html=1;fontStyle=0;childLayout=stackLayout;horizontal=1;startSize=26;fillColor=#e0e0e0;horizontalStack=0;resizeParent=1;resizeLast=0;collapsible=1;marginBottom=0;swimlaneFillColor=#ffffff;align=center;rounded=1;shadow=0;comic=0;labelBackgroundColor=none;strokeWidth=1;fontFamily=Verdana;fontSize=12" vertex="1" parent="1">
          <mxGeometry x="800" y="570" width="160" height="110" as="geometry" />
        </mxCell>
        <mxCell id="Y6p9sgC2ir5CLleIbesz-128" value="id pk fk" style="text;html=1;strokeColor=none;fillColor=none;spacingLeft=4;spacingRight=4;whiteSpace=wrap;overflow=hidden;rotatable=0;points=[[0,0.5],[1,0.5]];portConstraint=eastwest;" vertex="1" parent="Y6p9sgC2ir5CLleIbesz-126">
          <mxGeometry y="26" width="160" height="24" as="geometry" />
        </mxCell>
        <mxCell id="Y6p9sgC2ir5CLleIbesz-129" value="Expressionism pk" style="text;html=1;strokeColor=none;fillColor=none;spacingLeft=4;spacingRight=4;whiteSpace=wrap;overflow=hidden;rotatable=0;points=[[0,0.5],[1,0.5]];portConstraint=eastwest;" vertex="1" parent="Y6p9sgC2ir5CLleIbesz-126">
          <mxGeometry y="50" width="160" height="30" as="geometry" />
        </mxCell>
        <mxCell id="Y6p9sgC2ir5CLleIbesz-130" style="edgeStyle=none;curved=1;rounded=0;orthogonalLoop=1;jettySize=auto;html=1;entryX=0;entryY=0.5;entryDx=0;entryDy=0;fontSize=12;startSize=8;endSize=8;" edge="1" parent="Y6p9sgC2ir5CLleIbesz-126" source="Y6p9sgC2ir5CLleIbesz-128" target="Y6p9sgC2ir5CLleIbesz-128">
          <mxGeometry relative="1" as="geometry" />
        </mxCell>
        <mxCell id="Y6p9sgC2ir5CLleIbesz-131" style="edgeStyle=orthogonalEdgeStyle;rounded=0;orthogonalLoop=1;jettySize=auto;html=1;entryX=1;entryY=1.083;entryDx=0;entryDy=0;entryPerimeter=0;" edge="1" parent="1" source="Y6p9sgC2ir5CLleIbesz-128" target="S22k_SI6KiM7VIfaPMrJ-15">
          <mxGeometry relative="1" as="geometry">
            <Array as="points">
              <mxPoint x="770" y="608" />
              <mxPoint x="770" y="496" />
            </Array>
          </mxGeometry>
        </mxCell>
      </root>
    </mxGraphModel>
  </diagram>
</mxfile>
